<?xml version="1.0" encoding="UTF-8" standalone="no"?>
<svg
   xmlns:dc="http://purl.org/dc/elements/1.1/"
   xmlns:cc="http://creativecommons.org/ns#"
   xmlns:rdf="http://www.w3.org/1999/02/22-rdf-syntax-ns#"
   xmlns:svg="http://www.w3.org/2000/svg"
   xmlns="http://www.w3.org/2000/svg"
   xmlns:sodipodi="http://sodipodi.sourceforge.net/DTD/sodipodi-0.dtd"
   xmlns:inkscape="http://www.inkscape.org/namespaces/inkscape"
   version="1.1"
   viewBox="0 0 120.8197 65.835876"
   height="65.835876mm"
   width="120.8197mm"
   fill="white">
  <g>
    <path
       style="stroke-width:0.264583"
       d="M 120.82 46.6122 C 119.579 49.0927 118.098 51.5043 116.375 53.8469 C 114.653 56.1207 112.724 58.1533 110.588 59.9448 C 108.452 61.7362 106.075 63.1487 103.456 64.1822 C 100.907 65.2847 98.1165 65.8359 95.0848 65.8359 C 90.8128 65.8359 87.3333 64.3889 84.6461 61.4951 C 81.9589 58.6012 79.7541 54.846 78.0315 50.2296 C 76.3779 45.5442 75.0687 40.2732 74.1041 34.4166 C 73.1395 28.491 72.3126 22.531 71.6236 16.5365 C 70.0389 19.3615 68.5575 22.3243 67.1794 25.4248 C 65.8703 28.4565 64.5956 31.6605 63.3554 35.0367 C 62.1151 38.4129 60.8749 41.8924 59.6347 45.4753 C 58.3944 49.0582 57.0508 52.7445 55.6039 56.5341 C 55.2594 57.3609 54.8804 58.2911 54.467 59.3246 C 54.0536 60.2893 53.5024 61.2194 52.8134 62.1152 C 52.1933 63.0798 51.4353 63.8722 50.5396 64.4923 C 49.6439 65.1124 48.5759 65.4225 47.3357 65.4225 C 46.4399 65.4225 45.6476 65.2158 44.9585 64.8023 C 44.2695 64.3889 43.6494 63.8722 43.0982 63.2521 C 42.6159 62.7008 42.168 62.0807 41.7546 61.3917 C 41.4101 60.6338 41.1 59.9448 40.8244 59.3246 C 39.4464 56.224 38.3439 53.0546 37.5171 49.8162 C 36.6903 46.5778 35.9668 43.236 35.3467 39.7909 C 34.7955 36.3458 34.3132 32.694 33.8998 28.8355 C 33.4864 24.977 33.0729 20.8773 32.6595 16.5365 C 31.2126 19.9127 29.9035 23.1511 28.7321 26.2517 C 27.6297 29.2834 26.5273 32.3495 25.4248 35.4501 C 24.3913 38.4818 23.3233 41.6513 22.2209 44.9586 C 21.1873 48.197 20.0849 51.711 18.9136 55.5006 C 18.638 56.3963 18.3279 57.3609 17.9834 58.3945 C 17.7078 59.3591 17.3288 60.2548 16.8465 61.0816 C 16.4331 61.9085 15.8474 62.5975 15.0895 63.1487 C 14.4005 63.6999 13.5048 63.9755 12.4023 63.9755 C 10.6109 63.9755 9.30175 63.3899 8.47492 62.2185 C 7.6481 61.1161 6.95908 59.807 6.40786 58.2911 C 5.58104 56.224 4.78866 53.3646 4.03074 49.7128 C 3.27282 45.9921 2.5838 41.9613 1.96368 37.6205 C 1.34356 33.2797 0.861249 28.801 0.516739 24.1846 C 0.172228 19.5682 -2.7e-05 15.2618 -2.7e-05 11.2655 C -2.7e-05 7.40696 1.0335 4.58198 3.10056 2.79053 C 5.16762 0.930175 7.88925 -2e-06 11.2655 -2e-06 C 11.4722 -2e-06 11.7822 -2e-06 12.1956 -2e-06 C 12.609 -2e-06 13.0225 0.0689 13.4359 0.206704 C 13.8493 0.275606 14.1938 0.41341 14.4694 0.620116 C 14.8139 0.826822 14.9517 1.10243 14.8828 1.44694 C 14.2627 6.27008 13.8493 10.8521 13.6426 15.1929 C 13.4359 19.5337 13.367 23.7712 13.4359 27.9053 C 13.5048 31.9705 13.7115 36.0013 14.056 39.9976 C 14.4694 43.925 14.9862 47.9558 15.6063 52.0899 C 16.7776 48.1625 17.9145 44.4074 19.0169 40.8244 C 20.1883 37.2415 21.3941 33.6931 22.6343 30.1791 C 23.8745 26.6651 25.1837 23.1166 26.5617 19.5337 C 28.0086 15.8819 29.5589 12.0579 31.2126 8.06153 C 32.1083 5.99447 33.0385 4.54753 34.0031 3.72071 C 35.0367 2.89388 36.3458 2.48047 37.9305 2.48047 C 39.9287 2.48047 41.479 3.23839 42.5814 4.75424 C 43.7528 6.27008 44.5107 7.99263 44.8552 9.92189 C 45.4064 13.4359 45.8887 17.0532 46.3021 20.774 C 46.7155 24.4258 47.1634 28.112 47.6457 31.8327 C 48.128 35.5534 48.7137 39.2397 49.4027 42.8915 C 50.0917 46.4744 50.9875 49.954 52.0899 53.3302 C 53.4679 49.7473 54.846 46.0265 56.224 42.168 C 57.6021 38.2406 59.0146 34.3132 60.4615 30.3858 C 61.9084 26.4584 63.4243 22.5999 65.009 18.8102 C 66.6627 15.0206 68.4197 11.4377 70.28 8.06153 C 71.1758 6.47679 72.1748 5.16765 73.2773 4.13412 C 74.4486 3.03169 75.8955 2.48047 77.6181 2.48047 C 78.5827 2.48047 79.444 2.72163 80.2019 3.20394 C 80.9598 3.61735 81.6144 4.20302 82.1656 4.96094 C 82.7168 5.64996 83.1647 6.44234 83.5092 7.33806 C 83.8537 8.16489 84.0949 9.02616 84.2327 9.92189 C 84.5772 11.92 84.8873 14.5039 85.1629 17.6734 C 85.5074 20.8429 85.9208 24.2191 86.4031 27.802 C 86.9543 31.3849 87.6089 35.0022 88.3668 38.654 C 89.1247 42.2369 90.0894 45.5098 91.2607 48.4726 C 92.432 51.3665 93.8445 53.7436 95.4982 55.6039 C 97.1518 57.4643 99.15 58.3945 101.493 58.3945 C 103.422 58.3945 105.282 58.05 107.074 57.3609 C 108.865 56.603 110.553 55.6728 112.138 54.5704 C 113.723 53.3991 115.17 52.0899 116.479 50.643 C 117.857 49.1271 119.097 47.6457 120.2 46.1988 Z" />
  </g>
</svg>
